<?xml version="1.0" encoding="utf-8"?>
<!-- Generator: Adobe Illustrator 27.0.0, SVG Export Plug-In . SVG Version: 6.00 Build 0)  -->
<svg version="1.1" id="Layer_1" xmlns="http://www.w3.org/2000/svg" xmlns:xlink="http://www.w3.org/1999/xlink" x="0px" y="0px"
	 viewBox="0 0 304.42 316.56" style="enable-background:new 0 0 304.42 316.56;" xml:space="preserve">
<style type="text/css">
	.st0{fill:#FCF3C0;}
</style>
<g>
	<g>
		<g>
			<path class="st0" d="M76.2,261.45h-3.28v-15.94h6.96c1.72,0,3.07,0.45,4.06,1.35c1,0.89,1.5,2.05,1.5,3.47
				c0,1.43-0.5,2.59-1.5,3.48c-0.99,0.9-2.34,1.34-4.06,1.34H76.2V261.45z M76.2,248.38v3.97h3.46c0.79,0,1.41-0.17,1.85-0.51
				c0.44-0.34,0.66-0.83,0.66-1.47c0-0.64-0.22-1.13-0.66-1.47s-1.05-0.52-1.84-0.52H76.2z"/>
			<path class="st0" d="M96.21,261.45h-3.28v-15.94h7.37c1.7,0,3.04,0.44,4.01,1.32c0.99,0.87,1.48,2,1.48,3.39
				c0,1.06-0.29,1.98-0.88,2.77c-0.59,0.79-1.39,1.34-2.42,1.66l4.91,6.8h-3.8L98.95,255h-2.74V261.45z M96.21,248.38v3.88h3.91
				c0.75,0,1.33-0.17,1.75-0.5c0.41-0.33,0.62-0.81,0.62-1.43c0-0.61-0.21-1.08-0.63-1.43c-0.42-0.34-1-0.52-1.74-0.52H96.21z"/>
			<path class="st0" d="M113.55,253.48c0-2.33,0.78-4.29,2.33-5.87c1.56-1.61,3.54-2.41,5.92-2.41c2.36,0,4.33,0.8,5.89,2.41
				c1.58,1.6,2.37,3.56,2.37,5.87c0,2.3-0.79,4.26-2.37,5.88c-1.56,1.61-3.53,2.41-5.89,2.41c-2.39,0-4.36-0.8-5.92-2.41
				C114.33,257.76,113.55,255.8,113.55,253.48z M118.29,257.22c0.94,0.99,2.12,1.48,3.52,1.48c1.39,0,2.56-0.49,3.5-1.48
				c0.94-0.99,1.41-2.23,1.41-3.73c0-1.5-0.47-2.75-1.41-3.74c-0.94-0.99-2.11-1.48-3.5-1.48c-1.41,0-2.58,0.49-3.52,1.48
				c-0.93,0.97-1.39,2.22-1.39,3.74C116.9,255,117.36,256.25,118.29,257.22z"/>
			<path class="st0" d="M144.75,261.45h-3.26v-7.15l-6.17-8.79h3.87l3.97,5.67l3.98-5.67h3.76l-6.15,8.73V261.45z"/>
			<path class="st0" d="M169.75,261.45H157.8v-15.94h11.69v2.95h-8.41v3.07h6.78v2.89h-6.78v4.1h8.67V261.45z"/>
			<path class="st0" d="M185.1,261.77c-2.48,0-4.53-0.77-6.17-2.32c-1.64-1.57-2.46-3.56-2.46-5.97c0-2.42,0.81-4.4,2.43-5.96
				c1.64-1.55,3.7-2.32,6.19-2.32c1.53,0,2.94,0.33,4.21,1v3.3c-1.24-0.82-2.63-1.23-4.19-1.23c-1.5,0-2.77,0.49-3.8,1.48
				c-1,0.98-1.5,2.22-1.5,3.74c0,1.52,0.52,2.77,1.55,3.76c1.01,0.97,2.31,1.46,3.89,1.46c1.74,0,3.2-0.46,4.37-1.39v3.3
				C188.32,261.39,186.82,261.77,185.1,261.77z"/>
			<path class="st0" d="M196.36,248.46v-2.95h13.37v2.95h-5.06v12.99h-3.28v-12.99H196.36z"/>
			<path class="st0" d="M215.5,253.48c0-2.33,0.78-4.29,2.33-5.87c1.56-1.61,3.54-2.41,5.92-2.41c2.36,0,4.33,0.8,5.89,2.41
				c1.58,1.6,2.37,3.56,2.37,5.87c0,2.3-0.79,4.26-2.37,5.88c-1.56,1.61-3.53,2.41-5.89,2.41c-2.39,0-4.36-0.8-5.92-2.41
				C216.28,257.76,215.5,255.8,215.5,253.48z M220.23,257.22c0.94,0.99,2.12,1.48,3.52,1.48c1.39,0,2.56-0.49,3.5-1.48
				c0.94-0.99,1.41-2.23,1.41-3.73c0-1.5-0.47-2.75-1.41-3.74c-0.94-0.99-2.11-1.48-3.5-1.48c-1.41,0-2.58,0.49-3.52,1.48
				c-0.93,0.97-1.39,2.22-1.39,3.74C218.84,255,219.31,256.25,220.23,257.22z"/>
		</g>
		<g>
			<g>
				<path class="st0" d="M5.09,312.89c-1.33,0-2.3-0.97-2.3-2.36v-4.35c0-1.39,0.97-2.36,2.3-2.36h3.08l6.35-10.03l-7.07-11.12H5.09
					c-1.33,0-2.3-1.03-2.3-2.42v-4.35c0-1.33,0.97-2.3,2.3-2.3h6.41c0.36,0,0.66,0,1.03,0.36c0.3,0,0.3,0.24,0.66,0.6l6.71,10.39
					l6.77-10.39c0.3-0.6,0.6-0.97,1.33-0.97H35c1.39,0,2.42,0.97,2.42,2.3v4.35c0,1.39-1.03,2.42-2.42,2.42h-2.66l-7.07,11.12
					l6.41,10.03H35c1.39,0,2.42,0.97,2.42,2.36v4.35c0,1.39-1.03,2.36-2.42,2.36h-7.01c-1.03,0-1.69-0.36-2.05-0.97l-6.04-9.43
					l-6.04,9.73c-0.3,0.3-1.03,0.66-1.69,0.66H5.09z"/>
				<path class="st0" d="M50.35,312.89c-2.42,0-4.47-1.99-4.47-4.35v-30.58c0-2.36,2.05-4.35,4.47-4.35h21.39
					c2.36,0,4.41,1.99,4.41,4.35v30.58c0,2.36-2.05,4.35-4.41,4.35H50.35z M65.75,303.83c0.67,0,1.33-0.66,1.33-1.39v-18.43
					c0-0.6-0.66-1.33-1.33-1.33h-9.12c-0.97,0-1.63,0.73-1.63,1.33v18.43c0,0.72,0.66,1.39,1.63,1.39H65.75z"/>
				<path class="st0" d="M89.44,312.83c-1.93,0-3.63-1.69-3.63-3.69v-31.78c0-2.05,1.69-3.75,3.63-3.75h23.2
					c1.69,0,3.32,1.69,3.32,3.32v8.4c0,1.63-1.63,3.38-3.32,3.38h-2.48c-1.69,0-3.26-1.75-3.26-3.38v-1.33
					c0-0.6-0.66-1.27-1.27-1.27h-9.06c-1.15,0-1.69,0.66-1.69,1.27v18.43c0,0.6,0.54,1.33,1.69,1.33h9.06c0.6,0,1.27-0.72,1.27-1.33
					v-1.33c0-1.99,1.33-3.38,3.26-3.38h2.48c1.87,0,3.32,1.39,3.32,3.38v8.34c0,2.05-1.45,3.38-3.32,3.38H89.44z"/>
				<path class="st0" d="M130.11,312.89c-2.42,0-4.47-1.99-4.47-4.35v-30.58c0-2.36,2.05-4.35,4.47-4.35h21.39
					c2.36,0,4.41,1.99,4.41,4.35v30.58c0,2.36-2.05,4.35-4.41,4.35H130.11z M145.52,303.83c0.67,0,1.33-0.66,1.33-1.39v-18.43
					c0-0.6-0.66-1.33-1.33-1.33h-9.12c-0.97,0-1.63,0.73-1.63,1.33v18.43c0,0.72,0.66,1.39,1.63,1.39H145.52z"/>
				<path class="st0" d="M170.05,312.89c-2.36,0-4.41-2.05-4.41-4.41v-25.8h-0.67c-1.33,0-2.3-1.03-2.3-2.36v-4.41
					c0-1.33,0.97-2.3,2.3-2.3h6.04c2.05,0,3.75,1.63,3.75,3.69v25.2c0,0.6,0.67,1.33,1.63,1.33h8.74c1.33,0,2.36,0.97,2.36,2.36
					v4.35c0,1.39-1.03,2.36-2.36,2.36H170.05z"/>
				<path class="st0" d="M194.29,312.83c-1.45,0-2.36-1.03-2.36-2.3v-4.35c0-1.33,0.91-2.36,2.36-2.36h0.6v-26.1
					c0-2.42,1.81-4.11,3.99-4.11h22.24c2.42,0,4.05,1.69,4.05,4.11v26.1h0.6c1.45,0,2.42,1.03,2.42,2.36v4.35
					c0,1.27-0.97,2.3-2.42,2.3h-6.65c-1.75,0-2.96-1.27-2.96-2.96v-7.37c0-1.03-0.73-1.75-1.45-1.75h-9c-1.03,0-1.63,0.73-1.63,1.75
					v7.37c0,1.69-1.33,2.96-3.14,2.96H194.29z M214.72,291.74c0.72,0,1.45-0.6,1.45-1.69v-5.98c0-0.79-0.73-1.39-1.45-1.39h-9
					c-1.03,0-1.63,0.6-1.63,1.39v5.98c0,1.09,0.6,1.69,1.63,1.69H214.72z"/>
				<path class="st0" d="M243.72,312.89c-1.15,0-2.24-0.97-2.24-2.36v-4.41c0-1.33,1.09-2.3,2.24-2.3h0.79v-21.15h-2.72
					c-0.3,0-0.3,0-0.3,0.3c0,1.39-1.33,2.6-2.66,2.6h-3.81c-1.33,0-2.6-1.21-2.6-2.6v-6.95c0-1.45,0.91-2.42,2.3-2.42h28.52
					c1.33,0,2.42,0.97,2.42,2.42v6.95c0,1.39-1.39,2.6-2.72,2.6h-3.69c-1.33,0-2.66-1.21-2.66-2.6c0-0.3,0-0.3-0.36-0.3h-2.72v21.15
					h0.67c1.33,0,2.42,0.97,2.42,2.3v4.41c0,1.39-1.09,2.36-2.42,2.36H243.72z"/>
				<path class="st0" d="M276.47,312.83c-1.33,0-2.36-0.97-2.36-2.36v-4.29c0-1.39,1.03-2.36,2.36-2.36h0.6v-21.15h-0.6
					c-1.33,0-2.36-0.97-2.36-2.36v-4.29c0-1.39,1.03-2.36,2.36-2.36h22.8c1.39,0,2.36,0.97,2.36,2.36v4.29
					c0,1.39-0.97,2.36-2.36,2.36H287.9c-1.09,0-1.69,0.73-1.69,1.69v4.29h7.69c1.09,0,1.69,0.72,1.69,1.81v5.68
					c0,0.97-0.6,1.63-1.69,1.63h-7.69v4.65c0,0.66,0.6,1.39,1.69,1.39h11.38c1.39,0,2.36,0.97,2.36,2.36v4.29
					c0,1.39-0.97,2.36-2.36,2.36H276.47z"/>
			</g>
		</g>
		<g>
			<path class="st0" d="M59.04,257.98H5.39c-1.15,0-2.08-0.93-2.08-2.08v-1.53c0-1.15,0.93-2.08,2.08-2.08h53.65
				c1.15,0,2.08,0.93,2.08,2.08v1.53C61.12,257.05,60.19,257.98,59.04,257.98z"/>
			<path class="st0" d="M299.55,257.98H245.9c-1.15,0-2.08-0.93-2.08-2.08v-1.53c0-1.15,0.93-2.08,2.08-2.08h53.65
				c1.15,0,2.08,0.93,2.08,2.08v1.53C301.63,257.05,300.7,257.98,299.55,257.98z"/>
		</g>
	</g>
	<g>
		<path class="st0" d="M174.88,134.44c9.69-3.01,19.85-4.57,30.26-4.57c7.51,0,14.91,0.81,22.12,2.41
			c2.42-3.35,4.65-6.94,6.68-10.82h-46.08L174.88,134.44z"/>
		<path class="st0" d="M121.27,188.27c0.51-0.62,1.05-1.24,1.59-1.9c1.05-1.18,2.16-2.43,3.36-3.68c2.39-2.53,5.13-5.12,8.13-7.75
			c1.51-1.3,3.09-2.62,4.74-3.91c1.63-1.33,3.38-2.56,5.14-3.85c3.57-2.51,7.36-4.97,11.36-7.21c1-0.56,2.01-1.12,3.01-1.68
			c1.02-0.54,2.06-1.06,3.09-1.58c2.06-1.07,4.19-2.01,6.31-2.99c1.06-0.49,2.14-0.93,3.22-1.36c1.08-0.43,2.16-0.87,3.23-1.3
			c2.16-0.85,4.36-1.56,6.52-2.33c2.18-0.7,4.36-1.34,6.51-1.97c2.17-0.57,4.32-1.11,6.43-1.62c2.13-0.46,4.23-0.88,6.28-1.28
			c1.02-0.21,2.05-0.36,3.06-0.51c1.01-0.15,2.01-0.3,2.99-0.44c1.97-0.31,3.89-0.51,5.75-0.67c0.93-0.09,1.84-0.17,2.74-0.25
			c0.9-0.09,1.78-0.17,2.64-0.19c3.46-0.15,6.62-0.31,9.44-0.22c2.81,0.02,5.24,0.06,7.25,0.24c0.07,0,0.14,0.01,0.22,0.01
			c-9.38-3.05-19.16-4.6-29.17-4.6C169.2,137.25,137.23,157.21,121.27,188.27z"/>
		<path class="st0" d="M215.34,83.55l28.54-28.54c-10.25,0.71-19.77,1.99-28.54,3.85V83.55z"/>
		<path class="st0" d="M182.64,116.25V70.17c-4.65,2.43-8.91,5.16-12.81,8.15c3.66,10.55,5.61,21.82,5.61,33.43
			c0,4.21-0.27,8.37-0.78,12.47L182.64,116.25z"/>
		<path class="st0" d="M167.04,71.17c14.06-10.26,32.32-17.29,54.64-21.02c-17.63-20.59-43.78-33.32-72-33.32
			c-10.16,0-19.94,1.61-29.12,4.59C141.65,32.34,157.88,50.03,167.04,71.17z"/>
		<path class="st0" d="M263.04,41.07l-10.07,0.34c-6.97,0.23-13.77,0.71-20.26,1.43c-5.27-6.39-11.19-12.11-17.65-17.05
			C196.14,11.34,173.54,3.7,149.68,3.7C90.25,3.7,41.9,52.05,41.9,111.48v0.27c0,20.71,5.89,40.83,17.04,58.17
			c10.2,15.88,24.35,28.71,41.11,37.36l-0.11,0.34l4.85,2.03l6.72,2.79l0.08-0.03c12.09,4.55,24.8,6.85,37.82,6.85
			c23.35,0,45.56-7.36,64.23-21.29c18.04-13.46,31.66-32.64,38.37-54.01l2.57-8.2l-7.93-3.32c-1.02-0.43-2.06-0.84-3.1-1.24
			c11.61-20.3,18.05-47.19,19.14-80.06L263.04,41.07z M256.97,50.95c-1.18,35.42-8.59,63.31-22.08,83.34
			c3.23,0.99,6.41,2.14,9.55,3.45l3.1,1.3l-1.01,3.21c-6.35,20.23-19.25,38.39-36.32,51.13c-17.67,13.18-38.69,20.15-60.8,20.15
			c-13.09,0-25.81-2.45-37.85-7.28l-0.02,0.01l-1.39-0.58c-0.01,0-0.02-0.01-0.03-0.01l-3.1-1.3l0.02-0.06
			c-36.19-16.57-59.39-52.53-59.39-92.54c0-0.05,0-0.09,0-0.13c0-0.04,0-0.09,0-0.13c0-56.27,45.78-102.04,102.04-102.04
			c22.58,0,43.98,7.23,61.88,20.9c7.01,5.35,13.26,11.62,18.65,18.56c7.26-0.91,14.9-1.5,22.94-1.77l3.94-0.13L256.97,50.95z"/>
		<path class="st0" d="M207.96,90.93V60.6c-6.43,1.69-12.41,3.72-17.94,6.08v42.19L207.96,90.93z"/>
		<path class="st0" d="M144.35,150.02c6.24-4.65,12.89-8.51,19.87-11.58c2.5-8.52,3.85-17.48,3.85-26.69
			c0-37.64-22.13-71.42-56.52-86.48C77.2,40.31,55.08,74.03,55.03,111.62c0.05,37.73,22.3,70.35,54.36,85.5
			C116.12,178.51,128.41,161.91,144.35,150.02z M116.7,60.78c0-3.72,3.03-6.75,6.75-6.75h8.43c1.81,0,3.51,0.71,4.79,1.99l0.1,0.1
			c1.95,1.96,2.5,4.77,1.44,7.33c-1.07,2.57-3.46,4.17-6.24,4.17h-8.53c-3.72,0-6.75-3.03-6.75-6.75V60.78z M116.7,86.24
			c0-3.72,3.03-6.75,6.75-6.75h24.91c2.78,0,5.31,1.73,6.29,4.3l0.08,0.22c0.77,2.05,0.49,4.35-0.76,6.15
			c-1.27,1.83-3.35,2.92-5.57,2.92h-24.94c-3.72,0-6.75-3.03-6.75-6.75V86.24z M116.7,111.7c0-3.72,3.03-6.75,6.75-6.75H153
			c3.71,0,6.74,3,6.75,6.68v0.23c-0.01,3.68-3.03,6.68-6.75,6.68h-29.55c-3.72,0-6.75-3.03-6.75-6.74V111.7z M112.94,162.72
			c0,3.72-3.03,6.75-6.75,6.75h-8.43c-1.81,0-3.51-0.71-4.79-1.99l-0.1-0.1c-1.95-1.96-2.5-4.77-1.44-7.33
			c1.07-2.57,3.46-4.17,6.24-4.17h8.53c3.72,0,6.75,3.03,6.75,6.75V162.72z M112.94,137.26c0,3.72-3.03,6.75-6.75,6.75h-24.9
			c-2.78,0-5.31-1.73-6.29-4.3l-0.08-0.22c0,0,0,0,0,0l0,0c-0.77-2.04-0.48-4.34,0.77-6.15c1.27-1.83,3.35-2.92,5.57-2.92h24.94
			c3.72,0,6.75,3.03,6.75,6.75V137.26z M112.94,111.8c0,3.72-3.03,6.74-6.75,6.74H76.64c-3.71,0-6.74-3-6.75-6.68v-0.23
			c0.01-3.68,3.03-6.68,6.75-6.68h29.55c3.72,0,6.75,3.03,6.75,6.75V111.8z M112.94,86.34c0,3.72-3.03,6.75-6.75,6.75H81.25
			c-2.22,0-4.3-1.09-5.57-2.92c-1.25-1.81-1.54-4.11-0.77-6.15L75,83.79c0.98-2.57,3.5-4.3,6.29-4.3h24.9
			c3.72,0,6.75,3.03,6.75,6.75V86.34z M112.94,60.88c0,3.72-3.03,6.75-6.75,6.75h-8.53c-2.78,0-5.17-1.6-6.24-4.17
			c-1.06-2.56-0.51-5.37,1.44-7.33l0.1-0.1c1.29-1.29,2.99-1.99,4.79-1.99h8.43c3.72,0,6.75,3.03,6.75,6.75V60.88z M116.7,137.26
			v-0.1c0-3.72,3.03-6.75,6.75-6.75h16.74c2.22,0,4.3,1.09,5.57,2.92c1.25,1.81,1.54,4.11,0.76,6.15l-0.08,0.22
			c-0.98,2.57-3.51,4.3-6.29,4.3h-16.7C119.73,144,116.7,140.98,116.7,137.26z"/>
		<path class="st0" d="M195.24,114.08h42.19c2.37-5.53,4.4-11.51,6.08-17.94h-30.33L195.24,114.08z"/>
		<path class="st0" d="M245.25,88.76c1.86-8.77,3.14-18.29,3.85-28.54l-28.54,28.54H245.25z"/>
		<path class="st0" d="M227.07,144.41c-2.74,0.38-5.79,1.06-9.12,1.65c-1.67,0.28-3.38,0.71-5.16,1.08
			c-0.89,0.19-1.79,0.38-2.71,0.57c-0.92,0.19-1.84,0.45-2.78,0.67c-1.87,0.49-3.81,0.87-5.75,1.44c-1.94,0.57-3.94,1.07-5.95,1.66
			c-2,0.62-4.03,1.25-6.09,1.89c-2.03,0.7-4.09,1.42-6.17,2.13c-2.05,0.79-4.12,1.55-6.18,2.37c-1.02,0.42-2.05,0.85-3.08,1.27
			c-1.03,0.42-2.06,0.85-3.06,1.32c-2.03,0.91-4.08,1.79-6.05,2.79c-1,0.48-1.99,0.97-2.99,1.45c-0.98,0.51-1.95,1.02-2.92,1.53
			c-1.96,0.99-3.83,2.1-5.72,3.12c-0.94,0.52-1.84,1.09-2.76,1.63c-0.9,0.55-1.84,1.05-2.71,1.62c-3.55,2.2-6.93,4.44-10.07,6.66
			c-3.13,2.24-6.06,4.41-8.67,6.54c-2.64,2.1-5.01,4.1-7.07,5.93c-1.56,1.39-2.94,2.68-4.15,3.82c-0.49,1.19-0.96,2.39-1.4,3.61
			c0.14-0.08,0.26-0.15,0.4-0.24c1.71-1.02,3.79-2.27,6.2-3.63c2.4-1.38,5.12-2.93,8.1-4.56c5.97-3.28,12.99-6.99,20.58-10.82
			c1.89-0.97,3.83-1.92,5.79-2.89c1.96-0.97,3.94-1.95,5.96-2.91c4.01-1.95,8.11-3.87,12.21-5.8c4.12-1.89,8.23-3.8,12.31-5.6
			c2.03-0.92,4.06-1.81,6.06-2.68c2.01-0.87,3.99-1.72,5.94-2.56c7.82-3.34,15.18-6.31,21.53-8.76c3.18-1.23,6.11-2.3,8.72-3.25
			c2.59-0.97,4.89-1.75,6.77-2.4c0.16-0.05,0.29-0.1,0.44-0.15c-0.08-0.03-0.17-0.06-0.25-0.09c-0.87,0.13-1.89,0.29-3.09,0.44
			C232.18,143.52,229.8,144.01,227.07,144.41z"/>
		<path class="st0" d="M223.38,152.63c-5.97,3.28-12.99,6.99-20.58,10.81c-1.9,0.95-3.83,1.91-5.79,2.89
			c-1.96,0.98-3.94,1.95-5.96,2.91c-4.01,1.95-8.12,3.87-12.22,5.8c-4.12,1.89-8.23,3.79-12.31,5.59c-2.03,0.92-4.06,1.8-6.07,2.67
			c-2,0.87-3.98,1.74-5.94,2.56c-7.82,3.34-15.18,6.31-21.53,8.76c-3.18,1.23-6.11,2.3-8.71,3.25c-2.59,0.97-4.89,1.75-6.77,2.4
			c-0.16,0.06-0.3,0.1-0.45,0.15c1.03,0.38,2.07,0.74,3.12,1.08c1.54-0.18,3.25-0.4,5.12-0.66c2.81-0.39,5.96-0.94,9.37-1.6
			c3.42-0.63,7.08-1.5,10.93-2.43c1.91-0.54,3.89-0.98,5.88-1.59c1-0.29,2.01-0.58,3.02-0.87c1.01-0.32,2.03-0.64,3.06-0.96
			c0.51-0.16,1.03-0.32,1.55-0.49c0.51-0.18,1.03-0.36,1.55-0.53c1.04-0.35,2.08-0.71,3.13-1.06c1.04-0.39,2.08-0.78,3.13-1.17
			c1.05-0.4,2.11-0.76,3.15-1.2c2.09-0.85,4.21-1.69,6.29-2.62c1.05-0.46,2.1-0.91,3.15-1.37l3.1-1.48c4.16-1.93,8.2-4.11,12.15-6.3
			c1-0.53,1.96-1.12,2.92-1.7c0.97-0.57,1.93-1.13,2.88-1.69c1.91-1.13,3.72-2.37,5.56-3.49c3.6-2.38,7.07-4.71,10.25-7.09
			c0.81-0.58,1.6-1.15,2.39-1.72c0.76-0.59,1.51-1.18,2.25-1.75c1.48-1.15,2.94-2.23,4.29-3.33c1.35-1.11,2.64-2.17,3.87-3.17
			c0.62-0.5,1.24-0.97,1.81-1.47c0.57-0.5,1.12-0.98,1.66-1.45c1.73-1.55,3.34-2.86,4.68-4.06c0.27-0.68,0.52-1.37,0.77-2.06
			c-0.13,0.08-0.25,0.15-0.39,0.23c-1.71,1.02-3.78,2.27-6.2,3.63C229.08,149.44,226.36,151,223.38,152.63z"/>
		<path class="st0" d="M228.17,159.56c-1.22,1.3-2.58,2.56-3.94,3.92c-0.69,0.67-1.4,1.35-2.11,2.04c-0.74,0.66-1.5,1.33-2.26,2.01
			c-3.04,2.75-6.42,5.45-10.01,8.14c-3.61,2.66-7.45,5.27-11.49,7.69c-4.04,2.43-8.26,4.72-12.59,6.77l-3.26,1.52
			c-1.1,0.47-2.2,0.94-3.3,1.4c-2.18,0.97-4.43,1.75-6.64,2.58c-2.21,0.83-4.45,1.51-6.65,2.22c-2.23,0.62-4.4,1.33-6.59,1.82
			c-1.09,0.27-2.17,0.53-3.24,0.79c-1.07,0.24-2.15,0.45-3.2,0.67c-2.11,0.45-4.2,0.78-6.22,1.12c-4.06,0.58-7.91,1.04-11.49,1.23
			c-1.78,0.12-3.5,0.17-5.12,0.21c-0.72,0-1.41,0-2.09,0c6.98,1.62,14.14,2.44,21.42,2.44c37.09,0,69.94-21.25,85.35-54.01
			c-0.05,0.06-0.09,0.11-0.14,0.17C232.83,154.58,230.58,156.93,228.17,159.56z"/>
	</g>
</g>
</svg>
